<?xml version="1.0" encoding="utf-8"?>
<!-- Generator: Adobe Illustrator 19.0.0, SVG Export Plug-In . SVG Version: 6.00 Build 0)  -->
<svg version="1.1" id="图层_1" xmlns="http://www.w3.org/2000/svg" xmlns:xlink="http://www.w3.org/1999/xlink" x="0px" y="0px"
	 viewBox="0 0 850.4 850.4" style="enable-background:new 0 0 850.4 850.4;" xml:space="preserve">
<style type="text/css">
	.st0{opacity:0.85;fill:url(#XMLID_97_);}
	.st1{opacity:0.85;fill:url(#XMLID_98_);}
	.st2{fill:#2D2D94;}
</style>
<g id="XMLID_52_">
	
		<linearGradient id="XMLID_97_" gradientUnits="userSpaceOnUse" x1="222.6513" y1="564.8581" x2="308.6991" y2="486.8148" gradientTransform="matrix(0.9945 4.872481e-03 6.258539e-03 0.9943 -2.6221 2.4255)">
		<stop  offset="0" style="stop-color:#17CAD4"/>
		<stop  offset="1" style="stop-color:#01D4C6"/>
	</linearGradient>
	<path id="XMLID_44_" class="st0" d="M286.4,610.2L180.8,506.7c-17.6-17.3-17.9-45.9-0.6-63.5l0,0c17.3-17.6,45.9-17.9,63.5-0.6
		l105.6,103.5c17.6,17.3,17.9,45.9,0.6,63.5l0,0C332.7,627.3,304.1,627.5,286.4,610.2z"/>
	
		<linearGradient id="XMLID_98_" gradientUnits="userSpaceOnUse" x1="271.3281" y1="473.8661" x2="575.8979" y2="473.8661" gradientTransform="matrix(0.9922 -1.069560e-02 6.810904e-03 0.9921 0.1195 8.3783)">
		<stop  offset="0" style="stop-color:#17CAD4"/>
		<stop  offset="0.48" style="stop-color:#00DDB7"/>
		<stop  offset="1" style="stop-color:#00F597"/>
	</linearGradient>
	<path id="XMLID_53_" class="st1" d="M286.5,546.5l210.9-209c17.6-17.4,46.2-17.3,63.6,0.3l0,0c17.4,17.6,17.3,46.2-0.3,63.6
		l-210.9,209c-17.6,17.4-46.2,17.3-63.6-0.3l0,0C268.8,592.6,269,563.9,286.5,546.5z"/>
	<circle id="XMLID_40_" class="st2" cx="423.2" cy="262.6" r="44.9"/>
	<circle id="XMLID_45_" class="st2" cx="529.7" cy="369.1" r="44.9"/>
	<circle id="XMLID_46_" class="st2" cx="634.2" cy="473.6" r="44.9"/>
	<circle id="XMLID_47_" class="st2" cx="529.2" cy="578.6" r="44.9"/>
	<circle id="XMLID_48_" class="st2" cx="423.7" cy="473.6" r="44.9"/>
	<circle id="XMLID_49_" class="st2" cx="318.2" cy="578.6" r="44.9"/>
	<circle id="XMLID_50_" class="st2" cx="318.2" cy="369.1" r="44.9"/>
	<circle id="XMLID_51_" class="st2" cx="212.2" cy="474.6" r="44.9"/>
</g>
</svg>
